<svg width="14" height="16" viewBox="0 0 14 16" fill="none" xmlns="http://www.w3.org/2000/svg">
<path fill-rule="evenodd" clip-rule="evenodd" d="M13.2939 10.3418C12.7629 9.81731 12.2143 9.27488 12.2143 6.71425C12.2143 4.11969 10.3094 1.96194 7.82469 1.56544C7.93914 1.39911 8.00029 1.2019 8.00001 1C8.00001 0.447719 7.55229 0 7.00001 0C6.44773 0 6.00001 0.447719 6.00001 1C5.99972 1.20191 6.06086 1.39912 6.17529 1.56547C3.69066 1.96197 1.78573 4.11972 1.78573 6.71428C1.78573 9.27469 1.23726 9.81716 0.706257 10.3417C-0.796743 11.8263 0.303944 14 2.09123 14H5.00001C5.00001 15.1046 5.89544 16 7.00001 16C8.10457 16 9.00001 15.1046 9.00001 14H11.9088C13.6959 14 14.7967 11.8255 13.2939 10.3418ZM7.00021 14.75C6.58665 14.75 6.25021 14.4136 6.25021 14H7.75021C7.75021 14.4136 7.41378 14.75 7.00021 14.75ZM2.09041 12.5H11.9089C12.4305 12.5 12.696 11.8644 12.3256 11.494C11.4397 10.6072 10.7141 9.76584 10.7141 6.71428C10.7141 4.66622 9.04785 3 6.99979 3C4.95173 3 3.28551 4.66622 3.28551 6.71428C3.28551 9.75266 2.56701 10.6007 1.67373 11.494C1.30494 11.8628 1.5666 12.5 2.09041 12.5Z" fill="#B1B1B1"/>
</svg>
